<?xml version="1.0" encoding="iso-8859-1"?>
<!-- Uploaded to: SVG Repo, www.svgrepo.com, Generator: SVG Repo Mixer Tools -->
<!DOCTYPE svg PUBLIC "-//W3C//DTD SVG 1.1//EN" "http://www.w3.org/Graphics/SVG/1.1/DTD/svg11.dtd">
<svg fill="#000000" version="1.1" id="Capa_1" xmlns="http://www.w3.org/2000/svg" xmlns:xlink="http://www.w3.org/1999/xlink" 
	 width="800px" height="800px" viewBox="0 0 612 612" xml:space="preserve">
<g>
	<g>
		<rect x="144.236" y="70.83" width="104.389" height="474.233"/>
		<rect x="296.495" y="364.427" width="104.389" height="180.636"/>
		<rect x="445.455" y="214.367" width="104.389" height="330.695"/>
		<path d="M38.25,500.53h27.32c9.051,0,16.395-7.34,16.395-16.396c0-9.051-7.339-16.395-16.395-16.395H38.25v-73.22h27.32
			c9.051,0,16.395-7.34,16.395-16.396c0-9.051-7.339-16.395-16.395-16.395H38.25v-73.215h27.32c9.051,0,16.395-7.339,16.395-16.395
			c0-9.051-7.339-16.395-16.395-16.395H38.25v-73.22h27.32c9.051,0,16.395-7.339,16.395-16.395s-7.339-16.395-16.395-16.395H38.25
			V76.5h27.32c9.051,0,16.395-7.339,16.395-16.395S74.626,43.71,65.57,43.71H38.25V0H0v612h612v-38.25H38.25V500.53z"/>
	</g>
</g>
</svg>