<?xml version="1.0" encoding="utf-8"?>
<!-- Generator: Adobe Illustrator 16.0.0, SVG Export Plug-In . SVG Version: 6.00 Build 0)  -->
<!DOCTYPE svg PUBLIC "-//W3C//DTD SVG 1.1//EN" "http://www.w3.org/Graphics/SVG/1.1/DTD/svg11.dtd">
<svg version="1.1" id="图层_1" xmlns="http://www.w3.org/2000/svg" xmlns:xlink="http://www.w3.org/1999/xlink" x="0px" y="0px"
	 width="595px" height="410px" viewBox="283.775 145.445 595 410" enable-background="new 283.775 145.445 595 410"
	 xml:space="preserve">
<path d="M833.362,198.686c3.771,0,6.734-3.031,6.734-6.735c0-3.705-2.963-6.735-6.734-6.735c-3.166,0-6.264,0.067-9.295,0.337
	c-0.605-0.202-1.347-0.337-2.021-0.337H602.145c-1.55,0-3.099,0-4.646,0.135h-0.067c-86.95,2.761-106.686,83.65-125.745,161.912
	c-5.051,20.609-9.968,40.949-16.029,59.673h-91.731V169.927c0-3.771-3.03-6.735-6.734-6.735c-3.705,0-6.734,2.963-6.734,6.735
	v333.658c0,3.771,2.963,6.735,6.734,6.735h473.613c3.704,0,6.735-2.964,6.735-6.735c0-3.771-3.031-6.735-6.735-6.735H642.151
	c26.672-15.625,42.634-43.711,54.285-76.442h134.366c3.704,0,6.734-3.031,6.734-6.735s-3.03-6.733-6.734-6.733H700.948
	c5.727-18.187,10.372-37.381,15.021-56.509C735.029,272.436,752.944,198.686,833.362,198.686z M701.488,198.686
	c-45.934,26.469-60.953,88.297-75.636,148.577c-5.051,20.609-10.035,40.949-16.097,59.673h-62.975
	c5.726-18.185,10.439-37.38,15.087-56.507c18.993-78.061,36.908-151.743,117.395-151.743H701.488L701.488,198.686z M484.75,350.429
	c18.993-77.993,36.977-151.743,117.395-151.743h22.226c-45.934,26.469-60.952,88.297-75.636,148.577
	c-5.051,20.609-9.968,40.949-16.029,59.673h-63.041C475.39,388.751,480.104,369.556,484.75,350.429z M363.923,420.406h87.018
	c-15.827,42.297-39.603,73.548-87.018,76.241V420.406z M411.002,496.85c26.604-15.625,42.564-43.711,54.217-76.442h62.771
	c-16.567,44.25-41.825,76.442-93.753,76.442H411.002z M488.051,496.85c26.604-15.625,42.634-43.711,54.218-76.442h62.771
	c-16.567,44.25-41.758,76.442-93.753,76.442H488.051z M588.405,496.85h-23.304c26.672-15.625,42.634-43.711,54.285-76.442h62.771
	C665.589,464.656,640.331,496.85,588.405,496.85z M686.871,406.936h-62.974c5.725-18.185,10.372-37.38,15.021-56.507
	c18.992-77.993,36.976-151.743,117.394-151.743h22.226c-45.934,26.469-60.952,88.297-75.636,148.577
	C697.851,367.872,692.934,388.212,686.871,406.936z"/>
<path d="M602.145,185.216c-1.55,0-3.099,0-4.646,0.135c0.403,0,0.875-0.135,1.347-0.135H602.145z"/>
</svg>
